<?xml version="1.0" standalone="no"?>
<!DOCTYPE svg PUBLIC "-//W3C//DTD SVG 20010904//EN"
 "http://www.w3.org/TR/2001/REC-SVG-20010904/DTD/svg10.dtd">
<svg version="1.0" xmlns="http://www.w3.org/2000/svg"
 width="328.000000pt" height="328.000000pt" viewBox="0 0 328.000000 328.000000"
 preserveAspectRatio="xMidYMid meet">
<metadata>
Created by potrace 1.14, written by Peter Selinger 2001-2017
</metadata>
<g transform="translate(0.000000,328.000000) scale(0.100000,-0.100000)"
fill="#000000" stroke="none">
<path d="M1412 2553 c-50 -109 -79 -239 -83 -373 -4 -157 53 -309 156 -415 31
-31 95 -79 116 -87 17 -7 19 -4 15 27 -2 19 -6 38 -9 42 -3 4 -7 31 -11 58 -3
28 -9 61 -12 75 -3 14 -7 33 -7 43 -1 9 -4 17 -7 17 -3 0 -6 8 -6 18 0 9 -4
35 -7 57 -4 22 -9 56 -12 75 -3 19 -8 41 -10 48 -2 6 1 12 8 12 7 0 13 -10 14
-22 1 -20 6 -46 17 -83 2 -5 6 -17 9 -25 4 -8 8 -28 11 -45 2 -16 5 -30 6 -30
1 0 3 -7 5 -15 19 -72 22 -90 17 -94 -3 -4 1 -6 9 -6 16 0 41 14 40 23 0 4 9
27 20 52 11 25 23 56 26 68 10 39 11 221 1 240 -5 10 -12 31 -14 45 -6 35 -40
101 -67 130 -11 12 -17 22 -13 22 12 0 -79 107 -128 152 -23 21 -46 38 -52 38
-6 0 -20 -21 -32 -47z m128 -373 c0 -5 -2 -10 -4 -10 -3 0 -8 5 -11 10 -3 6
-1 10 4 10 6 0 11 -4 11 -10z"/>
<path d="M2048 2483 c-15 -2 -29 -12 -32 -21 -3 -9 -20 -23 -36 -31 -17 -7
-29 -16 -26 -19 3 -3 -8 -18 -24 -34 -17 -15 -30 -30 -30 -33 0 -3 -15 -26
-34 -52 -32 -46 -52 -90 -48 -105 1 -5 -3 -8 -9 -8 -5 0 -8 -4 -4 -9 3 -5 1
-12 -4 -15 -15 -9 -11 -195 4 -235 8 -20 15 -45 17 -55 4 -27 35 -29 43 -2 12
37 15 46 18 59 9 29 26 65 35 71 5 3 8 19 7 36 -1 17 0 28 3 25 3 -3 12 5 20
17 10 18 12 19 7 3 -4 -11 -9 -30 -10 -43 -2 -13 -8 -28 -13 -35 -5 -7 -8 -20
-7 -29 2 -10 -1 -18 -6 -18 -6 0 -7 -4 -4 -10 9 -15 45 -12 51 5 4 8 11 15 16
15 24 0 106 100 123 150 1 3 7 19 15 35 13 31 18 208 7 258 -14 63 -29 90 -47
85 -3 0 -17 -3 -32 -5z"/>
<path d="M873 2388 c5 -44 25 -123 54 -210 3 -10 10 -18 15 -18 5 0 7 -4 4 -9
-3 -5 1 -14 9 -21 8 -7 15 -18 15 -24 0 -22 105 -121 159 -150 60 -32 140 -56
189 -56 40 0 36 10 -33 85 -25 28 -69 77 -98 109 -28 32 -56 64 -62 70 -59 66
-40 52 55 -41 64 -62 119 -113 124 -113 9 0 2 101 -9 135 -12 35 -29 70 -44
88 -8 9 -11 17 -8 17 9 0 -43 52 -83 82 -58 43 -107 67 -183 88 -109 30 -110
30 -104 -32z"/>
<path d="M2375 2241 c-24 -7 -73 -39 -96 -62 -9 -9 -20 -18 -25 -20 -13 -6
-77 -89 -68 -89 4 0 -1 -9 -11 -20 -10 -11 -15 -20 -11 -20 3 0 1 -12 -7 -27
-17 -37 -14 -140 5 -159 13 -14 16 -12 28 15 15 38 40 61 40 37 0 -9 8 -16 20
-16 11 0 20 5 20 10 0 6 7 10 15 10 26 0 96 78 115 128 20 52 23 213 5 218 -5
1 -19 -1 -30 -5z m-114 -278 c-12 -20 -14 -14 -5 12 4 9 9 14 11 11 3 -2 0
-13 -6 -23z"/>
<path d="M2071 1973 c0 -7 -7 -13 -15 -13 -8 0 -28 -13 -46 -30 -18 -16 -35
-30 -39 -30 -6 0 -57 -48 -76 -72 -16 -19 -60 -92 -61 -100 -1 -5 -3 -10 -4
-13 -1 -3 -3 -8 -5 -12 -1 -5 -6 -17 -11 -28 -14 -33 -8 -166 10 -207 19 -44
23 -46 36 -15 6 12 14 29 20 37 5 8 14 27 20 43 5 15 14 27 19 27 5 0 5 -12
-2 -30 -14 -36 -3 -49 21 -27 10 10 24 17 31 17 8 0 32 20 56 44 71 75 100
186 81 311 -5 28 -9 56 -9 63 0 6 -4 12 -8 12 -4 0 -10 8 -12 18 -3 9 -5 11
-6 5z m-108 -323 c-5 -19 -23 -39 -23 -25 0 9 20 45 24 45 2 0 2 -9 -1 -20z
m-20 -60 c-3 -11 -13 -20 -22 -20 -14 0 -14 2 -1 10 8 5 11 10 7 10 -11 0 2
20 13 20 4 0 6 -9 3 -20z"/>
<path d="M2657 1944 c-119 -28 -189 -90 -225 -201 -16 -49 2 -50 66 -3 51 38
53 39 22 9 l-34 -34 31 -3 c75 -7 174 48 207 116 9 17 16 34 16 37 0 3 7 19
16 36 29 58 7 67 -99 43z"/>
<path d="M1056 1924 c-9 -6 -14 -13 -11 -15 2 -3 7 -27 11 -54 3 -28 9 -52 13
-55 3 -3 8 -14 9 -25 6 -30 51 -105 86 -143 37 -40 111 -92 131 -92 8 0 17 -4
20 -10 3 -5 31 -10 61 -10 30 0 54 5 54 10 0 6 -5 10 -12 10 -6 0 -8 3 -5 7 4
3 0 14 -9 24 -11 12 -13 23 -7 36 11 23 5 84 -10 99 -4 4 -7 15 -7 24 0 9 -11
30 -25 46 -14 16 -25 34 -25 40 0 6 -13 17 -30 24 -16 7 -30 16 -30 21 0 4
-10 11 -22 15 -13 4 -25 10 -28 15 -3 4 -18 10 -33 13 -14 2 -32 8 -39 13 -7
4 -21 6 -32 4 -10 -1 -16 1 -13 6 8 13 -29 11 -47 -3z m308 -303 c-5 -6 -34
20 -34 30 0 5 8 1 18 -8 10 -10 17 -20 16 -22z"/>
<path d="M1748 1900 c-9 -6 -29 -31 -44 -57 -42 -72 -40 -164 3 -213 11 -12
13 -12 13 3 0 9 14 27 31 39 57 42 74 120 44 196 -18 45 -21 47 -47 32z"/>
<path d="M2348 1887 c-16 -6 -28 -14 -28 -19 0 -4 -6 -5 -14 -2 -8 3 -17 0
-21 -5 -3 -6 -11 -9 -16 -6 -5 4 -9 1 -9 -4 0 -6 -6 -11 -13 -11 -7 0 -18 -9
-25 -20 -7 -11 -19 -20 -28 -20 -8 0 -13 -4 -9 -9 3 -5 -2 -16 -10 -25 -9 -8
-16 -19 -17 -23 0 -8 -13 -45 -25 -73 -11 -26 -10 -60 1 -73 6 -7 10 -11 9 -9
-2 5 56 62 63 62 3 0 3 -8 0 -18 -5 -15 -1 -17 34 -14 22 2 40 8 40 13 0 5 7
9 15 9 8 0 15 5 15 10 0 6 5 10 11 10 34 0 100 119 105 190 3 51 -18 61 -78
37z"/>
<path d="M790 1870 c0 -43 91 -170 118 -163 4 1 14 -5 23 -13 20 -18 121 -23
127 -6 2 6 -3 12 -12 12 -8 0 -20 10 -27 21 -8 15 -8 19 0 15 28 -18 1 53 -35
91 -25 26 -95 54 -143 58 -45 4 -51 3 -51 -15z"/>
<path d="M578 1715 c-1 -1 -28 -5 -58 -8 -30 -4 -62 -8 -70 -11 -33 -9 -60
-18 -60 -20 0 -18 68 -133 98 -164 6 -7 12 -17 12 -21 0 -19 154 -164 216
-203 92 -59 130 -75 205 -91 51 -11 194 -16 194 -7 0 1 16 3 35 5 47 6 140 37
140 47 0 5 9 4 21 -3 21 -11 20 -11 -11 -42 -73 -72 -72 -137 5 -211 40 -39
159 -102 211 -112 22 -4 34 -12 34 -23 0 -9 7 -27 16 -39 8 -12 13 -22 10 -22
-3 0 8 -23 24 -50 25 -43 30 -61 30 -119 0 -112 -51 -236 -138 -330 -17 -19
-30 -37 -27 -39 8 -9 132 74 173 116 91 92 136 196 141 325 1 9 5 17 9 17 5 0
7 -19 6 -42 -2 -24 3 -67 11 -96 30 -116 118 -206 259 -262 80 -31 115 -36 53
-7 -109 52 -186 190 -187 333 0 65 16 154 38 207 7 15 16 38 22 52 39 100 153
221 254 270 100 48 206 54 206 11 0 -16 65 -68 74 -59 3 3 12 0 20 -6 18 -15
149 -16 154 -2 2 6 12 11 22 11 10 0 21 4 25 9 7 12 -64 83 -76 76 -4 -3 -10
4 -14 15 -3 11 -14 20 -24 20 -9 0 -22 5 -29 12 -30 30 -149 22 -187 -13 -16
-14 -33 -17 -77 -14 -65 4 -139 -13 -224 -51 -46 -21 -76 -27 -134 -27 -41 -1
-86 1 -100 5 -50 12 -101 38 -95 48 10 15 50 12 111 -10 50 -17 54 -17 42 -2
-7 9 -28 30 -45 46 -33 29 -42 46 -23 46 14 0 108 61 140 92 22 20 56 78 46
78 -2 0 -23 -11 -47 -24 -46 -25 -122 -51 -174 -61 -89 -16 -212 -35 -227 -35
-11 0 -18 8 -18 20 0 13 7 20 19 20 91 0 151 102 104 180 -25 43 -58 56 -129
51 -45 -3 -92 -69 -87 -121 3 -30 -1 -38 -26 -55 -34 -22 -48 -60 -30 -81 6
-8 8 -14 4 -14 -5 0 0 -9 10 -20 10 -11 15 -23 12 -27 -12 -11 -109 -4 -167
12 -30 9 -66 18 -79 21 -13 3 -37 12 -53 20 -17 9 -32 13 -35 10 -4 -3 14 -15
38 -26 24 -11 55 -29 69 -40 14 -11 -32 7 -101 40 -70 33 -132 60 -138 60 -6
0 -11 5 -11 10 0 6 -3 9 -7 8 -13 -4 -153 70 -165 87 -4 6 -8 6 -8 2 0 -4 -10
-2 -22 5 -13 7 -26 11 -30 10 -5 -1 -8 3 -8 8 0 14 7 13 35 -6 14 -9 25 -13
25 -10 0 3 21 -4 48 -17 26 -14 53 -22 60 -20 6 3 12 0 12 -5 0 -9 26 -22 55
-28 6 -1 30 -11 55 -22 25 -11 53 -23 63 -26 10 -3 16 -9 14 -13 -4 -7 39 -9
57 -4 6 1 -44 114 -54 121 -3 3 -21 26 -40 53 -18 26 -39 47 -47 47 -7 0 -13
4 -13 8 0 17 -167 103 -215 111 -3 1 -6 1 -7 2 -28 7 -214 19 -220 14z m1254
-710 c8 -32 7 -57 -7 -125 -10 -47 -18 -97 -19 -112 0 -16 -5 -28 -9 -28 -5 0
-5 -6 -1 -12 4 -8 3 -10 -2 -5 -5 5 -10 30 -10 55 -1 41 -14 205 -18 239 -1 7
-4 15 -7 17 -3 3 -3 22 -1 43 l5 37 29 -34 c16 -19 34 -53 40 -75z m-356 43
c21 -23 39 -47 40 -53 0 -5 2 -12 3 -15 10 -22 9 -50 -2 -50 -20 0 -95 72
-107 103 -25 70 8 77 66 15z"/>
<path d="M2577 1674 c-1 -1 -33 -4 -72 -8 -38 -4 -74 -11 -79 -16 -6 -6 -21
-10 -34 -10 -15 0 -21 -4 -16 -12 4 -7 3 -8 -4 -4 -17 10 -77 -23 -128 -72 -8
-7 -14 -10 -14 -6 0 6 -22 -21 -67 -81 -5 -6 -13 -17 -20 -25 -6 -9 -14 -28
-17 -43 l-5 -27 36 15 c19 8 46 15 59 15 12 0 25 4 28 9 7 11 166 55 173 48 8
-8 -36 -29 -47 -22 -6 3 -10 3 -10 -2 0 -4 -11 -13 -25 -20 -14 -6 -23 -7 -20
-3 3 5 -12 -1 -34 -13 -37 -21 -38 -22 -19 -35 27 -20 103 -38 163 -41 51 -1
155 17 155 28 0 4 9 7 20 8 11 1 27 9 36 17 8 9 19 16 23 16 4 0 19 9 32 20
43 37 99 90 94 90 -2 0 15 19 39 43 48 48 53 85 13 94 -48 11 -113 23 -145 27
-20 3 -37 5 -37 6 0 2 -76 5 -78 4z m-87 -195 c0 -5 -4 -7 -10 -4 -5 3 -10 1
-10 -5 0 -7 -6 -10 -14 -7 -8 3 -17 1 -20 -6 -3 -9 -5 -8 -5 1 -1 7 9 17 22
22 30 12 37 12 37 -1z"/>
<path d="M1178 1522 c-42 -4 -42 -14 -1 -70 51 -68 146 -105 210 -81 l27 10
-29 15 c-35 18 -47 30 -22 21 16 -6 16 -4 2 23 -33 63 -93 90 -187 82z"/>
<path d="M1984 1328 c-36 -17 -55 -71 -41 -114 17 -51 107 -63 145 -19 33 39
30 87 -9 119 -32 27 -60 31 -95 14z"/>
<path d="M912 1114 c-52 -24 -104 -69 -146 -126 l-28 -37 55 -16 c75 -22 182
-21 247 2 78 27 170 115 170 163 0 12 -48 3 -67 -13 -7 -5 -13 -7 -13 -3 0 4
-13 0 -30 -9 -16 -8 -35 -15 -42 -14 -7 0 9 11 37 24 l49 24 -38 16 c-51 22
-136 17 -194 -11z"/>
</g>
</svg>
